PathFileType	4	(X/Y/Z)	Walk6.trc
DataRate	CameraRate	NumFrames	NumMarkers	Units	OrigDataRate	OrigDataStartFrame	OrigNumFrames
200.000000	200.000000	7	58	mm	200.000000	434	716
Frame#	Times		RCAR		LMT1		RFHD		LTB2		LFHD		LTB3		RUA1		LMT5		LTB4		RElbow		RASI		RFA1		LACR1		LToe		RBHD		LUA1		LASI		RACR1		LTH1		LTH3		RTH3		LCAR		RWRU		LTH2		RLFC		C7		RBack		STRN		LElbow		RTH4		RTH2		CLAV		LTH4		RMT1		LLFC		RWRR		LWRR		RTB4		RTB3		LFA1		LPSI		RPSI		RTB2		RToe		LTB1		RTB1		LWRU		RTH1		LElbowM		LMMAL		LBHD		T10		RLMAL		RMMAL		RCAL		RMT5		LCAL		RElbowM
			X1	Y1	Z1	X2	Y2	Z2	X3	Y3	Z3	X4	Y4	Z4	X5	Y5	Z5	X6	Y6	Z6	X7	Y7	Z7	X8	Y8	Z8	X9	Y9	Z9	X10	Y10	Z10	X11	Y11	Z11	X12	Y12	Z12	X13	Y13	Z13	X14	Y14	Z14	X15	Y15	Z15	X16	Y16	Z16	X17	Y17	Z17	X18	Y18	Z18	X19	Y19	Z19	X20	Y20	Z20	X21	Y21	Z21	X22	Y22	Z22	X23	Y23	Z23	X24	Y24	Z24	X25	Y25	Z25	X26	Y26	Z26	X27	Y27	Z27	X28	Y28	Z28	X29	Y29	Z29	X30	Y30	Z30	X31	Y31	Z31	X32	Y32	Z32	X33	Y33	Z33	X34	Y34	Z34	X35	Y35	Z35	X36	Y36	Z36	X37	Y37	Z37	X38	Y38	Z38	X39	Y39	Z39	X40	Y40	Z40	X41	Y41	Z41	X42	Y42	Z42	X43	Y43	Z43	X44	Y44	Z44	X45	Y45	Z45	X46	Y46	Z46	X47	Y47	Z47	X48	Y48	Z48	X49	Y49	Z49	X50	Y50	Z50	X51	Y51	Z51	X52	Y52	Z52	X53	Y53	Z53	X54	Y54	Z54	X55	Y55	Z55	X56	Y56	Z56	X57	Y57	Z57	X58	Y58	Z58

434	2.17	-266.92	781.19	286.14	-180.54	29.358	-6.2824	-274.86	1593.2	12.212	-246.81	249.97	-106.5	-288.09	1588.7	-81.68	-243.98	164.19	-49.006	-370.06	1185.7	231.95	-207.36	24.165	-87.278	-231.44	248.86	-47.066	-403.14	1061.5	263.67	-273.7	962.07	139.85	-376.41	916.48	279.78	-388.04	1362.7	-177.31	-109.31	23.731	-30.963	-424.47	1543.1	50.895	-415.71	1178.2	-262.46	-240.47	967.03	-144.89	-380.83	1366.1	136.05	-309.69	754.1	-228.5	-282.6	594.83	-170.26	-352.93	549.9	166.92	-433.19	753.27	-301.05	-337.99	812.15	283.08	-242	692.17	-181.96	-367.69	463.98	150.99	-460.52	1405.7	-11.641	-504.64	1307.6	96.876	-254.35	1233.2	-20.383	-470.46	1057.6	-280.64	-349.13	632.93	179.63	-293.87	635.93	160.53	-319.41	1333.9	-21.809	-297.38	676.74	-195.21	-682.45	74.58	28.897	-259.86	476.52	-132.15	-288.11	829.18	235.14	-428.62	802.79	-261.56	-550.33	262.86	77.758	-581.84	224.54	79.499	-486.26	923.04	-297.07	-499.61	953.7	-67.934	-506.71	951.06	21.338	-523.57	292.51	138.02	-656.4	37.286	62.061	-217.15	334.54	-47.68	-432.46	312.26	90.096	-483.56	807.23	-309.32	-342.87	718.72	197.94	-495.67	1035.6	-203.93	-282.53	61.778	7.8277	-438.24	1529.6	-88.49	-519.59	1136.6	-15.625	-700.61	192.59	100.17	-678.88	184.99	19.765	-752.64	232.85	56.56	-711.4	84.985	91.399	-357.81	30.851	-44.732	-434.2	1026.3	173.53
435	2.175	-265.24	780.16	285.02	-180.57	29.327	-6.2554	-268.93	1594.2	11.754	-245.88	249.75	-106.51	-282.19	1589.4	-82.12	-243.54	164	-48.931	-365.04	1186.1	231.91	-207.36	24.169	-87.27	-230.66	248.6	-47.038	-398.68	1062	263.33	-268.42	962.71	140.21	-373.24	916.83	279.43	-381.82	1363.6	-177.21	-109.29	23.703	-30.961	-418.46	1544.1	50.644	-408.09	1179	-262.71	-234.4	967.45	-144.56	-375.13	1366.8	136.23	-304.5	754.59	-228.67	-278.99	595.07	-170.41	-342.98	550.81	167.49	-420.27	754.35	-301.53	-335.86	812.22	282.81	-237.54	692.04	-181.81	-356.23	464.81	151.59	-454.55	1406.6	-11.628	-498.91	1308.3	96.621	-248.43	1234.1	-20.249	-461.93	1058.2	-281.47	-340.54	633.95	179.98	-285.07	637.68	161.52	-313.56	1334.8	-21.676	-293.01	677.14	-195.35	-669.61	76.108	31.045	-257.59	476.43	-132.3	-286.38	828.49	234.36	-416.73	803.83	-261.89	-496.76	268.75	83.125	-569.43	226.12	80.404	-476	923.24	-297.93	-493.58	954.63	-68.72	-500.97	951.9	20.546	-511.18	294.17	138.74	-643.69	39.061	64.922	-216.05	334.23	-47.663	-419.65	313.22	91.301	-471.64	807.37	-309.88	-335.77	719.95	197.92	-487.61	1035.8	-205.02	-282.56	61.753	7.8515	-432.28	1530.2	-88.701	-513.66	1137.4	-16.006	-688.47	194.71	100.72	-666.48	186.56	20.414	-740.68	234.52	56.675	-698.76	87.514	93.482	-357.85	30.891	-44.746	-417.36	1030	171.69
436	2.18	-263.6	779.16	283.92	-180.6	29.298	-6.2307	-263.02	1595.2	11.334	-245.03	249.54	-106.53	-276.32	1590.2	-82.521	-243.13	163.82	-48.883	-360.09	1186.5	231.91	-207.36	24.172	-87.264	-229.9	248.36	-47.038	-394.25	1062.5	263.01	-263.2	963.35	140.6	-370.11	917.16	279.11	-375.65	1364.4	-177.09	-109.28	23.678	-30.961	-412.47	1545	50.44	-400.5	1179.9	-262.95	-228.39	967.78	-144.2	-369.44	1367.5	136.44	-299.41	755.02	-228.84	-275.42	595.28	-170.53	-333.18	551.81	168.05	-407.31	755.52	-301.99	-333.75	812.3	282.56	-233.17	691.91	-181.64	-344.84	465.76	152.18	-448.59	1407.4	-11.586	-493.22	1308.9	96.379	-242.54	1234.8	-20.071	-453.39	1058.8	-282.3	-332.09	635.04	180.34	-276.42	639.48	162.57	-307.73	1335.6	-21.524	-288.72	677.49	-195.47	-656.25	77.433	33.237	-255.38	476.35	-132.43	-284.67	827.83	233.6	-404.84	804.93	-262.19	-461.49	272.56	86.592	-556.82	227.61	81.345	-465.71	923.48	-298.79	-487.6	955.56	-69.489	-495.28	952.79	19.768	-498.69	295.84	139.43	-630.34	40.712	67.82	-215	333.93	-47.68	-406.77	314.28	92.469	-459.68	807.56	-310.42	-328.8	721.2	197.94	-479.57	1036.1	-206.14	-282.59	61.737	7.8736	-426.35	1530.7	-88.867	-507.78	1138.3	-16.396	-676.08	196.55	101.25	-653.8	187.87	21.043	-728.55	235.78	56.746	-685.64	89.829	95.645	-357.88	30.932	-44.761	-406.39	1032.4	170.53
437	2.185	-261.97	778.19	282.85	-180.63	29.271	-6.2083	-257.13	1596.2	10.954	-244.24	249.36	-106.57	-270.48	1590.9	-82.882	-242.75	163.67	-48.862	-355.21	1186.9	231.93	-207.37	24.174	-87.258	-229.18	248.14	-47.063	-389.88	1063	262.71	-258.02	963.99	140.99	-367.01	917.49	278.81	-369.52	1365.3	-176.95	-109.27	23.655	-30.963	-406.48	1545.9	50.284	-392.95	1180.8	-263.18	-222.45	968.06	-143.83	-363.79	1368.1	136.68	-294.4	755.41	-228.98	-271.89	595.48	-170.63	-323.51	552.89	168.61	-394.3	756.8	-302.44	-331.64	812.4	282.33	-228.87	691.78	-181.47	-333.52	466.84	152.76	-442.65	1408.2	-11.518	-487.55	1309.6	96.149	-236.69	1235.6	-19.848	-444.83	1059.3	-283.13	-323.79	636.19	180.72	-267.9	641.34	163.68	-301.91	1336.3	-21.352	-284.49	677.81	-195.56	-642.41	78.549	35.451	-253.25	476.28	-132.55	-282.96	827.21	232.86	-392.95	806.1	-262.46	-454.27	273.19	87.169	-544.01	229.01	82.32	-455.4	923.76	-299.64	-481.69	956.49	-70.236	-489.63	953.7	19.011	-486.1	297.51	140.09	-616.38	42.221	70.721	-213.99	333.65	-47.727	-393.83	315.43	93.598	-447.68	807.82	-310.94	-321.98	722.46	198.01	-471.54	1036.3	-207.26	-282.61	61.729	7.8941	-420.44	1531.3	-88.989	-501.93	1139.1	-16.795	-663.46	198.1	101.74	-640.84	188.91	21.653	-716.26	236.64	56.784	-672.05	91.912	97.866	-357.91	30.974	-44.775	-404.36	1032.7	170.39
438	2.19	-260.37	777.25	281.81	-180.65	29.244	-6.188	-251.27	1597.2	10.613	-243.53	249.19	-106.62	-264.68	1591.6	-83.205	-242.38	163.53	-48.865	-350.4	1187.2	231.97	-207.38	24.175	-87.253	-228.49	247.93	-47.112	-385.55	1063.5	262.41	-252.89	964.66	141.4	-363.95	917.81	278.52	-363.43	1366.2	-176.8	-109.26	23.635	-30.967	-400.52	1546.7	50.176	-385.44	1181.7	-263.4	-216.57	968.28	-143.44	-358.17	1368.7	136.93	-289.49	755.75	-229.12	-268.43	595.66	-170.71	-313.97	554.03	169.15	-381.28	758.17	-302.86	-329.55	812.51	282.11	-224.66	691.63	-181.29	-322.27	468.03	153.32	-436.74	1409	-11.425	-481.92	1310.2	95.931	-230.87	1236.3	-19.579	-436.26	1059.9	-283.96	-315.63	637.38	181.11	-259.54	643.24	164.85	-296.11	1337.1	-21.162	-280.33	678.09	-195.63	-628.1	79.454	37.665	-251.2	476.21	-132.65	-281.25	826.61	232.16	-381.07	807.34	-262.71	-445.98	273.89	87.807	-531.03	230.3	83.323	-445.06	924.09	-300.48	-475.83	957.43	-70.953	-484.02	954.65	18.282	-473.44	299.15	140.71	-601.86	43.571	73.594	-213.02	333.39	-47.8	-380.84	316.65	94.683	-435.66	808.13	-311.44	-315.29	723.71	198.12	-463.53	1036.6	-208.41	-282.63	61.728	7.9131	-414.57	1531.8	-89.066	-496.13	1140	-17.203	-650.6	199.35	102.2	-627.63	189.68	22.245	-703.81	237.07	56.8	-658.04	93.748	100.12	-357.93	31.017	-44.787	-402.03	1033.1	170.23
439	2.195	-258.78	776.35	280.81	-180.68	29.22	-6.1697	-245.42	1598.1	10.308	-242.88	249.04	-106.69	-258.9	1592.3	-83.489	-242.04	163.4	-48.891	-345.66	1187.5	232.03	-207.39	24.176	-87.249	-227.84	247.74	-47.182	-381.27	1063.9	262.13	-247.79	965.35	141.8	-360.92	918.12	278.25	-357.39	1367.1	-176.63	-109.26	23.616	-30.971	-394.57	1547.6	50.114	-377.96	1182.6	-263.62	-210.77	968.45	-143.05	-352.57	1369.3	137.21	-284.64	756.05	-229.25	-265.03	595.83	-170.76	-304.55	555.22	169.7	-368.24	759.64	-303.26	-327.46	812.62	281.9	-220.52	691.48	-181.11	-311.06	469.32	153.87	-430.85	1409.8	-11.314	-476.31	1310.9	95.725	-225.09	1237	-19.263	-427.68	1060.6	-284.78	-307.61	638.61	181.52	-251.31	645.19	166.07	-290.32	1337.9	-20.952	-276.25	678.34	-195.68	-613.35	80.15	39.86	-249.23	476.14	-132.74	-279.54	826.05	231.48	-369.2	808.64	-262.93	-436.68	274.64	88.492	-517.88	231.47	84.344	-434.7	924.46	-301.31	-470.03	958.36	-71.636	-478.45	955.61	17.586	-460.71	300.74	141.3	-586.78	44.755	76.41	-212.08	333.15	-47.896	-367.81	317.94	95.721	-423.61	808.51	-311.92	-308.73	724.95	198.28	-455.53	1036.9	-209.56	-282.65	61.733	7.9307	-408.73	1532.3	-89.102	-490.37	1140.8	-17.62	-637.52	200.29	102.63	-614.17	190.17	22.817	-691.21	237.09	56.808	-643.61	95.327	102.4	-357.96	31.062	-44.797	-399.42	1033.6	170.05
440	2.2	-257.21	775.49	279.85	-180.71	29.196	-6.153	-239.59	1599	10.04	-242.3	248.9	-106.76	-253.16	1593	-83.737	-241.71	163.28	-48.937	-340.99	1187.8	232.1	-207.39	24.176	-87.246	-227.2	247.57	-47.269	-377.06	1064.4	261.85	-242.71	966.07	142.19	-357.92	918.43	278	-351.38	1367.9	-176.44	-109.25	23.599	-30.976	-388.64	1548.4	50.096	-370.53	1183.5	-263.84	-205.03	968.59	-142.68	-347	1369.9	137.49	-279.87	756.31	-229.38	-261.7	595.98	-170.8	-295.23	556.46	170.24	-355.2	761.21	-303.63	-325.39	812.74	281.69	-216.46	691.31	-180.92	-299.91	470.71	154.41	-424.97	1410.6	-11.187	-470.73	1311.5	95.529	-219.33	1237.6	-18.9	-419.09	1061.2	-285.6	-299.71	639.85	181.94	-243.22	647.17	167.33	-284.53	1338.6	-20.722	-272.23	678.55	-195.71	-598.17	80.641	42.017	-247.34	476.08	-132.8	-277.82	825.52	230.84	-357.35	810.02	-263.12	-426.46	275.42	89.208	-504.58	232.49	85.371	-424.32	924.87	-302.11	-464.29	959.29	-72.278	-472.91	956.6	16.928	-447.91	302.25	141.86	-571.17	45.768	79.148	-211.19	332.91	-48.009	-354.75	319.27	96.708	-411.54	808.96	-312.38	-302.3	726.16	198.48	-447.53	1037.2	-210.72	-282.66	61.743	7.9475	-402.91	1532.9	-89.096	-484.65	1141.6	-18.046	-624.24	200.91	103.05	-600.49	190.4	23.372	-678.45	236.68	56.819	-628.79	96.641	104.68	-357.99	31.11	-44.803	-396.57	1034	169.84
